<svg width="241" height="82" viewBox="0 0 241 82" fill="none" xmlns="http://www.w3.org/2000/svg">
<g clip-path="url(#clip0_84_128)">
<path d="M96.0645 39.6932V19.3431H106.042C108.382 19.3431 109.975 19.7188 110.823 20.4683C111.669 21.2196 112.095 22.634 112.095 24.7098C112.095 27.2246 111.097 28.7061 109.105 29.1522V29.2281C111.424 29.5861 112.583 31.1998 112.583 34.0727C112.583 36.1502 112.139 37.6069 111.245 38.4428C110.352 39.2788 108.797 39.695 106.577 39.695H96.0645V39.6932ZM99.9163 27.8842H104.63C106.157 27.8842 107.129 27.7149 107.551 27.3781C107.974 27.0412 108.183 26.2582 108.183 25.0378C108.183 23.4065 107.261 22.5917 105.418 22.5917H99.9163V27.8842ZM99.9163 36.4429H104.139L105.492 36.413C106.79 36.413 107.645 36.2295 108.056 35.8627C108.466 35.4959 108.674 34.7199 108.674 33.5365C108.674 32.3532 108.457 31.5296 108.026 31.2104C107.595 30.8911 106.533 30.7324 104.838 30.7324H99.9163V36.4429Z" fill="#464646"/>
<path d="M123.798 19.3431V39.6932H119.946V19.3431H123.798Z" fill="#464646"/>
<path d="M150.801 19.3431V39.6932H144.274L138.475 28.5262C138.187 27.9689 137.737 26.9971 137.123 25.6039L136.469 24.1436L135.83 22.6834H135.681L135.74 24.0255L135.784 25.3517L135.814 28.0183V39.6932H131.962V19.3431H138.489L143.768 29.6602C144.234 30.5737 144.774 31.6812 145.388 32.9828L146.16 34.6388L146.934 36.3089H147.067L147.023 34.9968L146.979 33.6847L146.949 31.0622V19.3431H150.801Z" fill="#464646"/>
<path d="M164.896 22.8033V39.695H161.046V22.8033H155.188V19.3431H170.963V22.8033H164.896Z" fill="#464646"/>
<path d="M186.274 35.7869H177.516L176.252 39.6932H172.178L178.929 19.3431H184.71L191.566 39.6932H187.566L186.272 35.7869H186.274ZM185.38 32.9387L181.871 22.3395L178.424 32.9387H185.38Z" fill="#464646"/>
<path d="M215.69 19.3431V39.6932H209.163L203.364 28.5262C203.076 27.9689 202.626 26.9971 202.012 25.6039L201.358 24.1436L200.717 22.6834H200.57L200.628 24.0255L200.672 25.3517L200.701 28.0183V39.6932H196.85V19.3431H203.377L208.657 29.6602C209.123 30.5737 209.661 31.6812 210.277 32.9828L211.049 34.6388L211.823 36.3089H211.956L211.912 34.9968L211.868 33.6847L211.838 31.0622V19.3431H215.69Z" fill="#464646"/>
<path d="M231.446 29.05H240.381L240.442 33.0903C240.442 36.032 239.892 37.9279 238.785 38.7779C237.679 39.6262 235.213 40.0512 231.386 40.0512C227.877 40.0512 225.554 39.4851 224.412 38.3511C223.274 37.2189 222.703 34.9086 222.703 31.4202C222.703 26.9672 222.931 24.1542 223.387 22.9814C223.951 21.5494 224.81 20.5865 225.96 20.0891C227.109 19.5918 229.061 19.3431 231.819 19.3431C235.424 19.3431 237.755 19.7294 238.807 20.4983C239.858 21.269 240.381 22.9744 240.381 25.6198H236.487C236.418 24.2865 236.126 23.4611 235.616 23.1366C235.106 22.8139 233.826 22.6516 231.775 22.6516C229.543 22.6516 228.129 22.9303 227.529 23.4858C226.929 24.0431 226.63 25.3499 226.63 27.4063L226.614 29.4503L226.646 32.0586C226.646 34.078 226.941 35.3619 227.538 35.9121C228.13 36.4641 229.509 36.741 231.671 36.741C233.833 36.741 235.108 36.5082 235.678 36.0408C236.247 35.5735 236.532 34.4712 236.532 32.7323L236.546 31.8982H231.448V29.05H231.446Z" fill="#464646"/>
<path d="M107.875 51.4706H105.068C105.052 51.3277 105.045 51.2237 105.045 51.1584C104.978 50.3048 104.79 49.7687 104.479 49.5518C104.167 49.3313 103.436 49.222 102.282 49.222C100.92 49.222 100.03 49.349 99.6119 49.6012C99.1933 49.8533 98.9857 50.3842 98.9857 51.1937C98.9857 52.1495 99.1563 52.7245 99.4958 52.9185C99.8352 53.1107 100.961 53.2588 102.869 53.3629C105.126 53.4899 106.586 53.8108 107.249 54.3329C107.912 54.8514 108.243 55.9307 108.243 57.5726C108.243 59.5901 107.854 60.8952 107.076 61.4842C106.299 62.075 104.586 62.3696 101.937 62.3696C99.5538 62.3696 97.9726 62.0803 97.1917 61.5001C96.4108 60.9217 96.0203 59.7489 96.0203 57.9835L96.0098 57.4262H98.8063L98.8169 57.7507C98.8169 58.8106 99.0016 59.4596 99.3727 59.6995C99.742 59.9358 100.753 60.0557 102.403 60.0557C103.691 60.0557 104.512 59.9182 104.867 59.6431C105.223 59.3679 105.4 58.7348 105.4 57.7401C105.4 57.0065 105.265 56.518 104.996 56.2764C104.727 56.0347 104.143 55.8884 103.247 55.8355L101.661 55.7349C99.2636 55.5956 97.7317 55.2623 97.0651 54.7332C96.3985 54.2077 96.066 53.0754 96.066 51.3383C96.066 49.6012 96.4671 48.3825 97.2709 47.7952C98.0746 47.2044 99.6787 46.9099 102.083 46.9099C104.363 46.9099 105.898 47.1797 106.689 47.7212C107.481 48.2644 107.877 49.3207 107.877 50.8939V51.4723L107.875 51.4706Z" fill="#464646"/>
<path d="M116.405 49.4653V53.384H123.509V55.5091H116.405V59.8035H123.965V62.2302H113.531V47.0386H123.898V49.4635H116.405V49.4653Z" fill="#464646"/>
<path d="M147.05 47.0403V62.2319H144.174V53.9519C144.174 53.2905 144.193 52.541 144.23 51.7033L144.286 50.5693L144.343 49.4441H144.255L143.91 50.5005L143.578 51.5587C143.266 52.5092 143.027 53.2094 142.857 53.6626L139.527 62.2319H136.908L133.545 53.7279C133.359 53.2605 133.116 52.5604 132.812 51.6239L132.469 50.5675L132.124 49.52H132.036L132.092 50.6222L132.149 51.735C132.193 52.5957 132.216 53.3346 132.216 53.9501V62.2302H129.34V47.0386H134.024L136.732 54.0718C136.917 54.5621 137.161 55.264 137.464 56.1775L137.796 57.2339L138.141 58.2815H138.24L138.561 57.2339L138.894 56.1881C139.168 55.3045 139.404 54.6079 139.604 54.0947L142.269 47.0403H147.053H147.05Z" fill="#464646"/>
<path d="M153.411 62.232V47.0404H160.271C162.32 47.0404 163.702 47.3984 164.416 48.1144C165.13 48.8305 165.487 50.2113 165.487 52.2606C165.487 54.3099 165.148 55.6432 164.467 56.3116C163.787 56.98 162.409 57.3133 160.337 57.3133L159.673 57.3239H156.287V62.232H153.411ZM156.287 54.899H159.56C160.863 54.899 161.69 54.7473 162.04 54.4457C162.392 54.1459 162.568 53.4352 162.568 52.3153C162.568 51.0314 162.422 50.2343 162.128 49.9256C161.836 49.6188 161.076 49.4636 159.847 49.4636H156.285V54.8972L156.287 54.899Z" fill="#464646"/>
<path d="M179.864 47.0404H182.742V57.1458C182.742 59.2603 182.334 60.6589 181.527 61.3431C180.714 62.0239 179.061 62.3678 176.558 62.3678C173.916 62.3678 172.185 62.0433 171.364 61.3978C170.543 60.7523 170.133 59.3908 170.133 57.3133V47.0422H173.007V57.3133C173.007 58.4332 173.207 59.1439 173.607 59.4455C174.008 59.7471 174.947 59.8952 176.426 59.8952C177.905 59.8952 178.895 59.7436 179.284 59.4385C179.673 59.1351 179.866 58.3891 179.866 57.2022V47.0404H179.864Z" fill="#464646"/>
<path d="M188.929 62.232V47.0404H196.401C198.257 47.0404 199.537 47.3614 200.241 48.0069C200.942 48.6523 201.294 49.8216 201.294 51.5129C201.294 53.0507 201.118 54.0983 200.768 54.6627C200.415 55.227 199.697 55.6168 198.61 55.8301V55.9307C200.288 56.0347 201.129 57.0188 201.129 58.8794V62.2302H198.253V59.4596C198.253 57.8936 197.485 57.1123 195.944 57.1123H191.805V62.2302H188.928L188.929 62.232ZM191.807 54.6873H195.933C196.918 54.6873 197.572 54.511 197.893 54.16C198.213 53.8055 198.376 53.1001 198.376 52.0402C198.376 50.9803 198.237 50.2572 197.961 49.9415C197.681 49.6276 197.075 49.4689 196.134 49.4689H191.807V54.6891V54.6873Z" fill="#464646"/>
<path d="M221.392 47.0403V62.2319H216.522L212.192 53.8954C211.979 53.481 211.641 52.7544 211.184 51.7139L210.695 50.624L210.217 49.5341H210.107L210.151 50.5358L210.183 51.5252L210.206 53.518V62.2319H207.332V47.0403H212.202L216.144 54.7402C216.492 55.4227 216.895 56.2516 217.352 57.2216L217.929 58.4578L218.506 59.7029H218.606L218.573 58.7241L218.541 57.7453L218.518 55.786V47.0386H221.392V47.0403Z" fill="#464646"/>
<path d="M236.49 59.3168H229.952L229.008 62.232H225.967L231.008 47.0404H235.324L240.442 62.232H237.457L236.49 59.3168ZM235.823 57.1916L233.204 49.2784L230.629 57.1916H235.823Z" fill="#464646"/>
<path d="M40.8895 82C63.4722 82 81.7791 63.6437 81.7791 41C81.7791 18.3563 63.4722 0 40.8895 0C18.3069 0 0 18.3563 0 41C0 63.6437 18.3069 82 40.8895 82Z" fill="white"/>
<path d="M76.6713 42.9681C76.4461 47.072 75.4841 51.2499 73.887 55.0487L73.6953 55.5037L76.3705 56.6324L76.5622 56.1774C77.3555 54.2868 78.008 52.3099 78.5005 50.2976C79.0774 47.9432 79.4362 45.5306 79.5698 43.1268L79.598 42.633L76.6994 42.4725L76.673 42.9663L76.6713 42.9681Z" fill="#E30613"/>
<path d="M67.1857 65.4645C64.361 68.5226 61.0526 71.0516 57.352 72.9809L56.9141 73.2084L58.2508 75.7903L58.6887 75.5628C62.6866 73.48 66.2623 70.7482 69.3157 67.4415L69.6516 67.0782L67.5216 65.1012L67.1857 65.4645Z" fill="#E30613"/>
<path d="M69.6536 19.5847C72.1353 22.9426 74.0032 26.6708 75.2045 30.6654L75.347 31.138L78.1242 30.2968L77.9817 29.8241C76.6837 25.5104 74.6663 21.4823 71.9858 17.8529L71.6921 17.4561L69.3599 19.1879L69.6536 19.5865V19.5847Z" fill="#E30613"/>
<path d="M45.5677 76.7215C41.4591 77.2718 37.3047 77.1025 33.2171 76.2136L32.7352 76.1078L32.1196 78.9525L32.6016 79.0565C35.3278 79.6491 38.0839 79.9471 40.84 79.9471C42.546 79.9471 44.2539 79.8325 45.9529 79.6032L46.4419 79.538L46.0567 76.6527L45.5677 76.7198V76.7215Z" fill="#E30613"/>
<path d="M49.3689 6.06501C53.4319 7.06497 57.2433 8.73862 60.6959 11.0401L61.1057 11.3135L62.7133 8.89029L62.3017 8.61693C58.5694 6.13027 54.452 4.32082 50.0602 3.23974C49.3777 3.0722 47.1018 2.62601 46.3947 2.49198L45.9111 2.40027L45.3711 5.26082L45.8548 5.35252C46.6111 5.49537 48.7639 5.91864 49.3689 6.06678" fill="#E30613"/>
<path d="M12.5705 63.2583L12.2662 62.8685L9.98145 64.6639L10.2857 65.0536C13.07 68.6143 16.4118 71.6301 20.2197 74.018L20.6383 74.2807L22.1772 71.8117L21.7586 71.5507C18.2374 69.3409 15.1454 66.5509 12.5705 63.2565" fill="#E30613"/>
<path d="M23.4115 9.5392C27.3865 7.27828 32.8741 5.47765 36.7559 5.15844L37.287 5.11435L36.8192 2.22559L36.3531 2.27673C31.8909 2.76877 25.851 4.75458 21.9904 7.0014L21.5718 7.24477L22.9771 9.78611L23.4098 9.5392H23.4115Z" fill="#E30613"/>
<path d="M6.72223 52.3345C5.41014 48.37 4.80158 44.2449 4.9159 40.0758L4.92997 39.582L2.02965 39.5009L2.01557 39.9947C1.89246 44.5006 2.5485 48.9608 3.96965 53.2516L4.12442 53.7207L6.87877 52.8036L6.72399 52.3345H6.72223Z" fill="#E30613"/>
<path d="M7.37112 27.9212C8.88197 24.0289 11.0401 20.4629 13.7821 17.3237L14.1075 16.9516L11.923 15.0328L11.5976 15.405C8.63045 18.8016 6.29823 22.6568 4.66427 26.8648L4.48486 27.3251L7.18996 28.3815L7.36936 27.9194L7.37112 27.9212Z" fill="#E30613"/>
<path d="M72.4713 57.8582C72.1899 58.3943 71.8873 58.9375 71.5725 59.4701L71.3228 59.8952L73.8203 61.3766L74.0718 60.9515C74.4113 60.3766 74.7367 59.7911 75.0409 59.2109L75.2714 58.7735L72.7017 57.4191L72.473 57.8564L72.4713 57.8582Z" fill="#E30613"/>
<path d="M70.074 61.791C69.7204 62.2954 69.3511 62.7945 68.9765 63.2724L68.6704 63.6622L70.9534 65.4611L71.2577 65.0713C71.664 64.5528 72.0632 64.0131 72.4466 63.4664L72.7298 63.0626L70.3571 61.3889L70.0722 61.7928L70.074 61.791Z" fill="#E30613"/>
<path d="M75.9605 33.5505C76.1012 34.1396 76.2279 34.748 76.3404 35.3565L76.4301 35.8432L79.283 35.3141L79.195 34.8274C79.0737 34.1696 78.9365 33.5135 78.7852 32.8768L78.6709 32.3954L75.8462 33.0691L75.9605 33.5505Z" fill="#E30613"/>
<path d="M76.7327 38.0954C76.7978 38.7091 76.8453 39.3299 76.877 39.9366L76.9016 40.4304L79.8002 40.2805L79.7738 39.7867C79.7404 39.1288 79.6876 38.4587 79.6173 37.7938L79.5662 37.3018L76.6782 37.6051L76.731 38.0971L76.7327 38.0954Z" fill="#E30613"/>
<path d="M62.9734 12.6609C63.4483 13.0365 63.9249 13.4351 64.3875 13.8425L64.7586 14.1687L66.6722 11.9819L66.3029 11.6556C65.8016 11.2147 65.2898 10.7844 64.7762 10.3788L64.3892 10.0719L62.5864 12.354L62.9734 12.6609Z" fill="#E30613"/>
<path d="M66.3857 15.7506C66.8167 16.1932 67.237 16.65 67.6363 17.1068L67.9617 17.4789L70.1462 15.5619L69.8208 15.1898C69.3863 14.6942 68.9325 14.2004 68.4665 13.7207L68.1217 13.3662L66.041 15.3961L66.3857 15.7506Z" fill="#E30613"/>
<path d="M40.5446 4.96624C41.1479 4.95742 41.7688 4.96624 42.3862 4.9874L42.8786 5.00504L42.9859 2.09864L42.4934 2.081C41.8286 2.05631 41.1602 2.0475 40.506 2.05631L40.0117 2.06337L40.0522 4.9733L40.5464 4.96624H40.5446Z" fill="#E30613"/>
<path d="M28.3645 74.7992L27.902 74.6263L26.8994 77.3582L27.362 77.5292C27.9776 77.755 28.6108 77.9701 29.244 78.1694L29.7153 78.3175L30.5772 75.5399L30.1075 75.3917C29.5201 75.2083 28.9344 75.009 28.3645 74.7992Z" fill="#E30613"/>
<path d="M24.1608 72.9316L23.7246 72.7041L22.3809 75.2825L22.8188 75.5117C23.401 75.8151 24.0008 76.1114 24.6058 76.3882L25.0543 76.5928L26.2644 73.9492L25.8159 73.7429C25.2566 73.4854 24.7008 73.212 24.1626 72.9298" fill="#E30613"/>
<path d="M54.5259 74.2454C53.956 74.4782 53.3774 74.6969 52.804 74.8979L52.3379 75.062L53.2929 77.8096L53.759 77.6456C54.3781 77.4287 55.0043 77.1924 55.6181 76.9402L56.0754 76.7532L54.9814 74.0585L54.5241 74.2454H54.5259Z" fill="#E30613"/>
<path d="M50.1674 75.7092C49.573 75.8662 48.9714 76.0108 48.3769 76.136L47.895 76.2383L48.4913 79.0865L48.975 78.9842C49.6152 78.8484 50.2677 78.6932 50.9097 78.5239L51.3863 78.3969L50.6441 75.584L50.1674 75.7092Z" fill="#E30613"/>
<path d="M10.8712 60.7434C10.5247 60.2355 10.187 59.7134 9.87045 59.1949L9.61366 58.7734L7.13721 60.2919L7.39576 60.7134C7.73873 61.2742 8.10105 61.8368 8.47568 62.387L8.75358 62.7962L11.1491 61.1525L10.8712 60.7451V60.7434Z" fill="#E30613"/>
<path d="M8.52303 56.7806C8.24338 56.2304 7.97603 55.6713 7.72803 55.1158L7.52753 54.6643L4.87695 55.853L5.07922 56.3045C5.34656 56.9041 5.63677 57.5107 5.93753 58.1033L6.16091 58.5442L8.7464 57.2233L8.52303 56.7824V56.7806Z" fill="#E30613"/>
<path d="M19.3207 12.1476C19.8061 11.7702 20.3057 11.4016 20.8034 11.0559L21.2097 10.7738L19.5529 8.38232L19.1483 8.6645C18.6084 9.04014 18.0702 9.43872 17.5443 9.84611L17.1538 10.1494L18.932 12.4492L19.3225 12.1458L19.3207 12.1476Z" fill="#E30613"/>
<path d="M15.8699 15.2021C16.3043 14.7647 16.7528 14.3362 17.2031 13.927L17.5689 13.5955L15.6219 11.4386L15.256 11.7719C14.7688 12.2146 14.2834 12.6766 13.8155 13.1493L13.4673 13.5002L15.5216 15.5548L15.8699 15.2039V15.2021Z" fill="#E30613"/>
<path d="M4.9193 37.2188C4.99845 36.6121 5.09518 36.0001 5.20599 35.397L5.29569 34.9102L2.44109 34.3829L2.35139 34.8697C2.23179 35.5222 2.12802 36.1836 2.04183 36.8396L1.97852 37.3299L4.85598 37.7073L4.9193 37.217V37.2188Z" fill="#E30613"/>
<path d="M5.80767 32.6935C5.96245 32.1009 6.13657 31.5048 6.32125 30.9211L6.47075 30.4502L3.70586 29.5667L3.55635 30.0393C3.3576 30.6707 3.16941 31.3144 3.00232 31.9546L2.87744 32.4325L5.68455 33.1697L5.80943 32.6917L5.80767 32.6935Z" fill="#E30613"/>
<path d="M59.0793 67.1452C59.1725 67.1805 59.2675 67.1981 59.3643 67.1981C59.5824 67.1981 59.7952 67.1082 59.9517 66.9406C60.1768 66.7025 60.2331 66.3551 60.0995 66.0571C59.8198 65.4363 59.3889 64.521 58.9263 63.6762C58.7557 63.3641 58.476 63.1242 58.1383 62.9972C56.2652 62.3024 49.8331 59.7981 43.7633 55.3644C43.5048 55.1757 43.044 55.0399 42.7889 55.3432C42.5409 55.6378 42.6816 56.0504 42.8945 56.2868C47.3144 61.1666 52.6912 64.745 59.0793 67.1452Z" fill="#1D1D1B"/>
<path d="M70.8038 28.6266C70.992 28.3832 71.0624 28.1346 70.9603 27.8665C70.8654 27.6178 70.5699 27.4909 70.1759 27.4168C68.2957 27.0676 65.2775 26.6373 62.8855 26.4098C58.7944 26.0235 55.1624 25.9601 51.3616 26.207C51.0819 26.2246 50.7759 26.4027 50.7759 26.7396C50.7759 27.1664 51.1435 27.2792 51.4073 27.3321C54.2654 27.9229 62.5408 29.7765 65.0823 30.3937C65.0823 30.3937 58.9932 37.889 56.8245 40.6049C56.6346 40.843 56.478 41.2204 56.7524 41.4885C56.9811 41.7107 57.3065 41.649 57.5193 41.5467C58.068 41.2857 62.4194 38.0089 64.6391 35.8256C66.8587 33.644 68.7776 31.2438 70.8038 28.6248" fill="#1D1D1B"/>
<path d="M19.9118 66.7361C20.7877 66.685 25.8936 64.7168 33.0029 60.6394C38.705 57.3679 45.4942 52.7191 51.8664 46.2979C52.0881 46.0739 52.1989 45.707 51.9649 45.4125C51.731 45.118 51.3159 45.1815 51.0556 45.3543C46.5635 48.3242 31.4568 58.2197 24.3722 61.7099C23.9906 61.8968 23.7074 61.9762 23.5016 61.8228C23.3081 61.6799 23.2818 61.3625 23.3732 60.941C23.8252 58.8546 24.6431 55.6378 25.4961 52.5445C26.365 49.3894 27.1864 46.409 27.4713 44.6683C27.5223 44.3579 27.3412 44.0687 27.0422 43.977C26.7414 43.8835 26.4758 44.051 26.3034 44.312C26.0766 44.6524 23.5262 50.2024 22.2388 53.5833C20.7948 57.375 19.458 61.7646 19.094 65.8385C19.0693 66.1171 19.1309 66.4169 19.3507 66.5915C19.4985 66.7079 19.7324 66.7467 19.9136 66.7361" fill="#1D1D1B"/>
<path d="M61.5716 66.0253C61.9462 65.9125 62.0201 65.5174 61.9585 65.2176C56.5853 37.8414 42.2454 10.5321 42.1012 10.257L41.6844 9.46692L41.2376 10.2411C38.8245 14.4332 29.1948 37.7567 29.1948 37.7567C29.0735 38.0512 29.1104 38.5292 29.485 38.7232C29.8368 38.9048 30.2519 38.6367 30.4155 38.3563L41.6879 18.3202C47.1086 27.997 58.5604 59.306 60.8258 65.5562C60.912 65.7925 61.1846 66.1382 61.5698 66.0236" fill="#E30613"/>
<path d="M32.561 26.7237C32.5153 26.2616 32.0984 26.1928 31.7766 26.1417C31.3175 26.0694 20.2087 25.2793 13.9947 27.0217C13.4389 27.1769 13.3562 27.9141 13.65 28.2721C14.707 29.5684 18.8526 34.4694 24.3208 39.8519C28.4119 43.8781 33.0799 47.8674 37.7267 52.0894C37.9941 52.3328 38.5974 52.6467 38.9896 52.3399C39.329 52.0736 39.2042 51.5163 38.8717 51.1142C35.9362 47.5658 32.2673 43.5995 26.6267 37.3528C22.7537 33.0638 19.0566 29.4149 19.0566 29.4149C19.0566 29.4149 27.9282 28.0199 31.905 27.4274C32.2286 27.3797 32.6015 27.1646 32.5575 26.7201" fill="#1D1D1B"/>
</g>
<defs>
<clipPath id="clip0_84_128">
<rect width="240.441" height="82" fill="white"/>
</clipPath>
</defs>
</svg>
