<svg width="54" height="54" viewBox="0 0 54 54" fill="none" xmlns="http://www.w3.org/2000/svg">
<rect width="54" height="54" rx="27" fill="#32338C"/>
<g clip-path="url(#clip0_104_672)">
<path d="M32.1886 12.0546C35.5083 10.9097 38.3615 11.4689 40.51 14.1629C42.3221 16.4357 42.4375 18.9966 41.0969 21.5623C40.2768 23.1332 38.9459 24.174 37.2419 24.7404C35.5476 25.3019 33.8706 25.1519 32.1002 24.4838C32.1002 25.4447 32.1002 26.2919 32.1002 27.1391C32.1027 28.1315 31.7147 28.9496 30.9904 29.6273C30.3937 30.1865 29.6694 30.489 28.864 30.5423C28.0979 30.5931 27.3244 30.5471 26.5559 30.5617C26.2269 30.5665 26.0943 30.4382 26.0967 30.1139C26.1065 29.1021 26.0844 28.0879 26.1188 27.0786C26.1237 26.9358 26.3619 26.7566 26.5313 26.6792C26.6786 26.6114 26.88 26.6647 27.0568 26.6647C28.066 26.6647 28.2035 26.5315 28.2035 25.5101C28.2059 21.0927 28.2035 16.6729 28.2035 12.2555C28.2035 11.4761 28.2059 11.4761 28.9769 11.4737C29.7872 11.4737 30.5975 11.4955 31.4053 11.464C31.8326 11.4471 32.1444 11.51 32.1812 12.0522M37.9736 18.3164C37.9785 16.7044 36.6943 15.3973 35.0786 15.3755C33.5023 15.3537 32.11 16.7019 32.0953 18.2632C32.0806 19.8486 33.409 21.1702 35.0222 21.175C36.682 21.1798 37.9662 19.9381 37.9711 18.3188" fill="#FAA71A"/>
<path d="M18.8359 25.0745C15.0128 25.0648 11.9902 22.0537 12 18.2608C12.0098 14.5163 15.1209 11.4568 18.8998 11.4762C22.6787 11.4955 25.7921 14.572 25.797 18.2947C25.8019 22.0513 22.6885 25.0817 18.8359 25.0745ZM18.8875 21.1751C20.5056 21.1751 21.8364 19.8777 21.8389 18.3019C21.8389 16.7359 20.4982 15.3949 18.912 15.3756C17.2939 15.3562 15.9557 16.6851 15.9582 18.3068C15.9606 19.9188 17.2448 21.1751 18.8875 21.1726" fill="#FAA71A"/>
<path d="M37.4062 38.4501C35.3265 40.4276 32.9643 41.725 30.1971 42.2551C22.3422 43.7558 15.0741 39.1278 13.262 31.4645C13.0754 30.6755 13.046 29.8501 12.9404 29.0441C12.8815 28.5987 13.0411 28.4099 13.5248 28.4244C14.4136 28.4535 15.3025 28.4607 16.1889 28.4244C16.7242 28.4026 16.8813 28.6519 16.9034 29.1118C16.9796 30.782 17.4903 32.3262 18.3914 33.7277C20.4196 36.8864 23.3636 38.5687 27.1475 38.6655C29.7625 38.7308 32.1123 37.8691 34.0865 36.1433C34.4793 35.7996 34.7175 35.7754 35.0883 36.17C35.8225 36.9518 36.6156 37.6804 37.4062 38.4549" fill="#FAA71A"/>
</g>
<defs>
<clipPath id="clip0_104_672">
<rect width="30.0003" height="31.0718" fill="white" transform="translate(12 11.4641)"/>
</clipPath>
</defs>
</svg>
